<!DOCTYPE svg PUBLIC "-//W3C//DTD SVG 20010904//EN" "http://www.w3.org/TR/2001/REC-SVG-20010904/DTD/svg10.dtd">
<svg version="1.0" xmlns="http://www.w3.org/2000/svg" width="512px" height="458px" viewBox="0 0 5120 4580" preserveAspectRatio="xMidYMid meet">
<g id="layer1" fill="#333333" stroke="none">
 <path d="M100 4567 c-46 -22 -77 -47 -88 -73 -9 -18 -12 -498 -12 -1873 l0 -1848 23 -34 c12 -18 40 -44 62 -56 l40 -23 557 0 556 0 24 -29 c29 -33 258 -396 258 -407 0 -4 33 -56 73 -116 81 -122 82 -123 166 -67 25 16 48 29 52 29 4 0 34 18 67 40 33 22 63 40 68 40 5 0 31 16 58 35 27 19 55 35 62 35 7 0 25 11 41 24 16 13 49 34 73 47 25 13 63 36 84 51 21 15 45 28 52 28 7 0 25 11 41 24 16 13 49 34 73 47 25 13 63 36 84 51 21 15 45 28 52 28 7 0 25 11 41 24 16 13 49 34 73 47 25 12 59 33 76 46 l31 23 1166 0 1167 0 0 54 c0 44 -5 60 -26 86 -59 69 11 64 -1019 70 -814 4 -926 7 -895 19 19 8 44 22 55 32 11 9 40 28 65 40 24 13 66 38 93 56 27 18 54 33 60 33 6 0 20 9 31 19 12 10 47 32 78 49 l57 30 693 -1 c750 0 708 -3 778 52 l25 20 3 529 c2 526 2 529 -19 556 -11 14 -38 35 -60 46 -37 19 -62 20 -829 20 l-790 0 0 515 0 514 793 3 c734 3 795 4 830 21 21 10 46 32 57 50 19 31 20 53 20 524 l0 492 -30 34 c-20 23 -45 38 -74 46 -66 16 -4881 14 -4916 -2z m4840 -572 l0 -385 -796 0 c-787 0 -797 0 -830 -21 -18 -11 -48 -39 -66 -62 l-33 -41 -3 -576 c-2 -386 0 -587 7 -611 12 -40 98 -128 128 -131 10 0 23 -2 28 -3 6 -2 360 -3 788 -4 l777 -1 0 -404 0 -403 -2224 0 c-2099 0 -2226 -1 -2269 -18 -26 -10 -53 -28 -61 -41 -55 -83 -68 -125 -44 -140 7 -5 145 -8 307 -9 l294 0 83 -130 c46 -71 83 -133 84 -137 0 -5 -207 -8 -460 -8 l-460 0 0 1755 0 1755 2375 0 2375 0 0 -385z m-1776 -2855 c17 -6 14 -11 -25 -33 -25 -15 -50 -27 -54 -27 -5 0 -18 -9 -29 -19 -12 -11 -41 -30 -66 -43 -25 -14 -67 -39 -94 -56 -28 -18 -54 -32 -59 -32 -4 0 -23 -11 -40 -24 -18 -13 -48 -32 -67 -43 -19 -10 -54 -31 -76 -45 -23 -15 -57 -34 -75 -42 -19 -9 -52 -29 -74 -45 -22 -16 -42 -28 -44 -25 -2 2 -17 -7 -32 -20 -16 -14 -52 -36 -81 -51 -29 -14 -71 -39 -93 -55 -22 -15 -42 -27 -44 -24 -2 2 -17 -7 -32 -20 -16 -14 -53 -36 -82 -50 -30 -14 -59 -32 -66 -39 -6 -8 -26 -21 -44 -28 -18 -7 -41 -20 -52 -30 -11 -9 -45 -29 -75 -45 -30 -15 -69 -39 -87 -52 l-32 -24 -37 59 c-20 32 -57 89 -81 127 -25 38 -48 79 -53 91 -5 12 -34 59 -66 106 -118 173 -304 475 -304 493 0 7 1946 3 1964 -4z"/>
 <path d="M3864 3186 c-58 -29 -81 -48 -122 -101 -46 -60 -51 -72 -62 -148 -11 -74 -11 -90 4 -134 61 -184 226 -276 415 -232 71 16 164 96 202 175 30 61 32 68 27 156 -5 102 -23 149 -79 213 -36 41 -100 81 -144 90 -16 3 -61 8 -100 11 -66 5 -75 3 -141 -30z m207 -199 c46 -31 67 -94 45 -134 -9 -15 -18 -35 -22 -44 -14 -38 -93 -50 -144 -24 -49 25 -81 110 -57 153 19 33 78 71 113 72 17 0 46 -10 65 -23z"/>
 </g>

</svg>