<!DOCTYPE svg PUBLIC "-//W3C//DTD SVG 20010904//EN" "http://www.w3.org/TR/2001/REC-SVG-20010904/DTD/svg10.dtd">
<svg version="1.0" xmlns="http://www.w3.org/2000/svg" width="512px" height="390px" viewBox="0 0 5120 3900" preserveAspectRatio="xMidYMid meet">
<g id="layer1" fill="#333333" stroke="none">
 <path d="M446 3829 c-197 -159 -290 -264 -357 -404 -66 -137 -81 -212 -86 -438 -6 -224 4 -329 47 -506 135 -549 443 -1008 834 -1243 l79 -48 581 0 581 0 77 44 c93 52 222 153 301 233 l58 59 77 -75 c96 -93 164 -146 272 -211 l83 -50 581 0 581 0 77 44 c339 193 628 584 788 1062 86 260 95 317 95 629 0 232 -3 280 -19 340 -25 94 -76 203 -130 278 -50 71 -184 202 -299 295 l-78 62 -2027 0 -2027 0 -89 -71z m2133 -206 c165 -138 259 -268 295 -411 107 -413 -59 -1035 -389 -1457 -77 -99 -230 -247 -310 -302 -117 -79 -66 -73 -634 -73 l-510 0 -93 62 c-370 246 -674 777 -738 1292 -16 123 -8 376 15 466 38 153 124 273 315 436 l85 74 930 0 930 0 104 -87z m2037 -6 c220 -188 291 -317 315 -576 37 -402 -131 -922 -416 -1286 -77 -99 -230 -247 -310 -302 -117 -79 -66 -73 -634 -73 l-510 0 -92 62 c-51 34 -135 102 -187 152 l-94 91 62 98 c218 347 350 778 350 1147 0 318 -69 520 -239 701 l-73 79 860 0 859 0 109 -93z"/>
 <path d="M1450 3290 l0 -80 -145 0 -145 0 0 -95 0 -95 145 0 145 0 0 -154 0 -154 -47 -12 c-114 -28 -205 -106 -244 -209 -30 -81 -24 -214 15 -289 48 -94 144 -167 235 -179 34 -5 40 -9 50 -43 21 -70 67 -111 143 -125 l37 -7 3 83 3 84 75 0 c41 1 105 2 143 3 l67 2 0 95 0 95 -145 0 -146 0 3 151 3 152 55 14 c158 40 256 172 254 343 -2 165 -118 306 -276 335 -25 5 -38 13 -38 23 0 8 -11 34 -25 58 -27 45 -90 84 -138 84 l-27 0 0 -80z m240 -302 c88 -61 92 -172 10 -242 -57 -48 -60 -42 -60 119 0 80 4 145 9 145 4 0 23 -10 41 -22z m-240 -623 c0 -166 -4 -171 -69 -106 -45 45 -59 92 -42 144 14 42 65 93 109 106 1 1 2 -64 2 -144z"/>
 <path d="M3480 3290 l0 -80 -145 0 -145 0 0 -95 0 -95 145 0 145 0 0 -154 0 -154 -46 -11 c-106 -27 -184 -87 -230 -178 -27 -53 -29 -67 -29 -163 0 -96 3 -110 28 -158 49 -94 146 -167 238 -179 32 -5 38 -10 48 -43 21 -70 67 -111 143 -125 l37 -7 3 83 3 84 142 0 143 0 0 98 0 97 -145 0 -146 0 3 151 3 152 53 13 c72 19 107 38 157 89 54 54 80 103 95 182 15 74 3 160 -32 229 -42 85 -145 162 -240 179 -25 5 -38 13 -38 23 0 8 -11 34 -25 58 -27 45 -90 84 -138 84 l-27 0 0 -80z m240 -302 c88 -61 92 -172 10 -242 -57 -48 -60 -42 -60 119 0 80 4 145 9 145 4 0 23 -10 41 -22z m-240 -623 c0 -167 -5 -174 -71 -105 -43 45 -56 92 -40 143 14 42 65 93 109 106 1 1 2 -64 2 -144z"/>
 <path d="M1025 1101 c-22 -10 -48 -27 -57 -37 -22 -25 -48 -87 -48 -114 0 -20 3 -20 625 -20 l625 0 0 32 c0 49 -43 113 -93 137 -42 20 -56 21 -528 21 -448 0 -487 -2 -524 -19z"/>
 <path d="M3055 1103 c-16 -8 -39 -23 -49 -32 -23 -20 -55 -88 -56 -118 l0 -23 625 0 625 0 0 32 c0 49 -43 113 -93 137 -42 20 -56 21 -533 21 -427 -1 -493 -3 -519 -17z"/>
 <path d="M1030 850 c-47 -3 -94 -10 -105 -17 -50 -29 -79 -82 -204 -377 -149 -351 -157 -383 -100 -430 l31 -26 888 0 c668 0 896 3 915 12 31 14 55 55 55 94 0 32 -262 651 -291 688 -10 13 -35 31 -55 41 -33 15 -85 17 -543 19 -278 0 -544 -1 -591 -4z m1156 -425 l102 -235 -739 0 c-407 0 -739 2 -739 5 0 2 39 93 86 202 47 109 92 213 99 231 l14 32 538 0 538 0 101 -235z"/>
 <path d="M3045 850 c-73 -5 -117 -24 -146 -63 -9 -12 -75 -161 -147 -331 -150 -351 -158 -383 -101 -430 l31 -26 888 0 c668 0 896 3 915 12 31 14 55 55 55 94 0 24 -218 552 -271 656 -11 21 -37 50 -58 64 l-39 26 -529 1 c-290 1 -559 0 -598 -3z m1170 -423 l101 -232 -735 -3 c-404 -1 -736 0 -738 2 -2 2 33 88 78 192 45 104 90 208 100 232 l18 42 538 0 538 0 100 -233z"/>
 </g>

</svg>